<svg width="712" height="780" viewBox="0 0 712 780" fill="none" xmlns="http://www.w3.org/2000/svg">
<path fill-rule="evenodd" clip-rule="evenodd" d="M449.798 8.8602C442.088 -0.320003 428.922 -2.6783 418.506 3.2552L408.775 8.7988L408.651 8.7759L408.631 8.8805L303.822 68.587L328.392 111.744L396.846 72.748L380.007 164.003L428.831 173.018L445.763 81.264L496.184 141.299L534.199 109.352L457.444 17.9631L457.475 17.791L457.267 17.7525L449.798 8.8602ZM302.052 779.591C327.3 779.591 347.767 759.635 347.767 735.017C347.767 710.4 327.3 690.443 302.052 690.443C276.805 690.443 256.338 710.4 256.338 735.017C256.338 759.635 276.805 779.591 302.052 779.591ZM363.533 534.976L347.063 626.836L298.193 618.069L314.558 526.792L246.347 565.972L221.623 522.903L326.005 462.947L326.028 462.816L326.184 462.844L335.983 457.216C346.361 451.255 359.513 453.548 367.262 462.67L374.823 471.57L374.898 471.583L374.887 471.646L452.33 562.806L414.496 594.967L363.533 534.976ZM403.082 315.702L386.624 407.504L337.754 398.738L354.057 307.802L286.063 346.661L261.433 303.538L365.482 244.073L365.589 243.475L366.303 243.603L375.819 238.165C386.196 232.235 399.323 234.541 407.058 243.654L414.328 252.218L414.459 252.242L414.439 252.35L491.838 343.532L453.991 375.677L403.082 315.702ZM82.6387 678.135L82.3657 678.321L82.1427 677.992L72.0173 675.084C61.3041 672.007 54.2121 661.841 55.0201 650.721L64.0201 526.861L111.022 530.278L105.546 605.636L178.772 555.957L205.223 594.97L133.427 643.679L206.673 664.719L193.666 710.027L82.6387 678.135ZM568.268 729.603L568.273 729.611L568.263 729.619L564.96 740.488C561.774 750.972 551.785 757.876 540.855 757.15L530.532 756.465L529.872 756.934L529.489 756.396L414.416 748.753L417.538 701.717L494.23 706.811L444.222 636.485L482.623 609.162L533.761 681.076L555.893 608.251L600.981 621.962L568.268 729.603ZM703.149 473.957L703.294 473.982L703.262 474.16L708.746 483.987C714.366 494.058 712.076 506.698 703.281 514.156L694.99 521.187L694.932 521.514L694.66 521.466L605.229 597.299L574.032 560.484L632.873 510.59L544.768 495.081L553.13 447.55L641.875 463.171L604.658 396.479L646.786 372.956L703.149 473.957ZM612.465 266.794L532.881 309.63L510.019 267.131L588.235 225.031L516.344 195.943L534.436 151.202L643.45 195.311L643.936 195.05L644.251 195.635L654.118 199.628C664.709 203.913 670.843 215.043 668.811 226.289L666.782 237.52L666.798 237.549L666.774 237.562L646.291 350.938L598.813 342.356L612.465 266.794ZM78.9347 366.347L167.222 381.374L159.128 428.952L70.0827 413.796L108.055 480.725L66.0946 504.545L8.67736 403.344L8.63666 403.337L8.64516 403.287L3.14436 393.592C-2.54554 383.563 -0.346836 370.909 8.39236 363.388L16.6395 356.291L16.73 355.759L17.1705 355.834L105.489 279.834L136.954 316.42L78.9347 366.347ZM212.296 160.568L271.044 226.035L235.14 258.273L175.032 191.29L161.037 267.589L113.582 258.88L134.304 145.905L134.2 145.788L134.351 145.653L136.446 134.23C138.479 123.145 147.913 114.944 159.171 114.475L169.554 114.043L170.103 113.55L170.511 114.003L288.445 109.097L290.45 157.317L212.296 160.568Z" fill="black"/>
</svg>
